<svg width="52" height="50" viewBox="0 0 52 50" fill="none" xmlns="http://www.w3.org/2000/svg">
<path d="M26.0417 34.3748C17.1286 34.3748 9.7373 27.2915 9.7373 18.7498V1.0415H42.346V18.7498C42.346 27.2915 34.9547 34.3748 26.0417 34.3748Z" stroke="#0F2137" stroke-width="1.5" stroke-miterlimit="10" stroke-linecap="round" stroke-linejoin="round"/>
<path d="M26.0411 34.375C24.9541 38.5417 26.4758 46.25 16.6932 48.9583C22.9976 48.9583 29.3019 48.9583 35.6063 48.9583C25.6063 46.25 27.128 38.5417 26.0411 34.375Z" stroke="#0F2137" stroke-width="1.5" stroke-miterlimit="10" stroke-linecap="round" stroke-linejoin="round"/>
<path d="M42.3461 19.7917V3.125H51.0417V11.4583C51.0417 16.0417 47.1287 19.7917 42.3461 19.7917Z" stroke="#0F2137" stroke-width="1.5" stroke-miterlimit="10" stroke-linecap="round" stroke-linejoin="round"/>
<path d="M9.73667 19.7914V3.12476H1.04102V11.4581C1.04102 16.0414 4.95406 19.7914 9.73667 19.7914Z" stroke="#0F2137" stroke-width="1.5" stroke-miterlimit="10" stroke-linecap="round" stroke-linejoin="round"/>
</svg>
