<svg width="52" height="52" viewBox="0 0 52 52" fill="none" xmlns="http://www.w3.org/2000/svg">
<path d="M44.5186 51.0415H7.5621C6.25775 51.0415 5.38818 50.172 5.38818 48.8676V24.9546H46.6925V48.8676C46.6925 50.172 45.823 51.0415 44.5186 51.0415Z" stroke="#0F2137" stroke-width="1.5" stroke-miterlimit="10"/>
<path d="M48.8671 24.9547H3.21493C1.91058 24.9547 1.04102 24.0851 1.04102 22.7808V18.4329C1.04102 17.1286 1.91058 16.259 3.21493 16.259H48.8671C50.1714 16.259 51.041 17.1286 51.041 18.4329V22.7808C51.041 24.0851 50.1714 24.9547 48.8671 24.9547Z" stroke="#0F2137" stroke-width="1.5" stroke-miterlimit="10"/>
<path d="M29.3026 16.259H22.7809V51.0416H29.3026V16.259Z" stroke="#0F2137" stroke-width="1.5" stroke-miterlimit="10" stroke-linecap="round" stroke-linejoin="round"/>
<path d="M33.6504 16.2589C37.7809 16.2589 41.2591 12.7806 41.2591 8.6502C41.2591 4.51976 37.7809 1.0415 33.6504 1.0415C29.52 1.0415 26.0417 4.51976 26.0417 8.6502V16.2589H33.6504Z" stroke="#0F2137" stroke-width="1.5" stroke-miterlimit="10" stroke-linecap="round" stroke-linejoin="round"/>
<path d="M18.4323 16.2589H26.041V8.6502C26.041 4.51976 22.5627 1.0415 18.4323 1.0415C14.3019 1.0415 10.8236 4.51976 10.8236 8.6502C10.8236 12.7806 14.3019 16.2589 18.4323 16.2589Z" stroke="#0F2137" stroke-width="1.5" stroke-miterlimit="10" stroke-linecap="round" stroke-linejoin="round"/>
</svg>
